<?xml version="1.0" encoding="UTF-8"?>
<svg width="35px" height="36px" viewBox="0 0 35 36" version="1.1" xmlns="http://www.w3.org/2000/svg" xmlns:xlink="http://www.w3.org/1999/xlink">
    <!-- Generator: sketchtool 53 (72520) - https://sketchapp.com -->
    <title>F651ADD6-ADDA-4C07-92D3-A9339D94FF41</title>
    <desc>Created with sketchtool.</desc>
    <defs>
        <filter x="-33.2%" y="-2.2%" width="358.4%" height="104.6%" filterUnits="objectBoundingBox" id="filter-1">
            <feOffset dx="0" dy="1" in="SourceAlpha" result="shadowOffsetOuter1"></feOffset>
            <feGaussianBlur stdDeviation="2" in="shadowOffsetOuter1" result="shadowBlurOuter1"></feGaussianBlur>
            <feColorMatrix values="0 0 0 0 0.655230978   0 0 0 0 0.210780779   0 0 0 0 0.0634630157  0 0 0 1 0" type="matrix" in="shadowBlurOuter1" result="shadowMatrixOuter1"></feColorMatrix>
            <feMerge>
                <feMergeNode in="shadowMatrixOuter1"></feMergeNode>
                <feMergeNode in="SourceGraphic"></feMergeNode>
            </feMerge>
        </filter>
    </defs>
    <g id="Page-3" stroke="none" stroke-width="1" fill="none" fill-rule="evenodd">
        <g id="landing-page" transform="translate(-1148.000000, -1520.000000)">
            <g id="cell-17" transform="translate(805.000000, 1440.000000)">
                <g id="screen-2" filter="url(#filter-1)" transform="translate(98.000000, 80.000000)">
                    <g id="Navigation-Bar---Hierarchical" transform="translate(0.741333, 0.000000)">
                        <g id="Right-Accessory" transform="translate(248.346667, 3.533333)">
                            <g id="bot_icon">
                                <circle id="Oval" fill="#FFC107" cx="13.3439999" cy="13.3439999" r="13.3439999"></circle>
                                <path d="M10.9462499,11.2589999 L10.1122499,11.2589999 C10.6332869,10.4774443 11.5104519,10.0079999 12.4497648,10.0079999 L14.446735,10.0079999 C15.3860478,10.0079999 16.2632128,10.4774443 16.7842498,11.2589999 L16.0544998,11.2589999 C18.8181327,11.2589999 21.0584998,13.499367 21.0584998,16.2629998 C21.0584998,19.0266327 18.8181327,21.2669998 16.0544998,21.2669998 L10.9462499,21.2669998 C8.18261703,21.2669998 5.94224994,19.0266327 5.94224994,16.2629998 C5.94224994,13.499367 8.18261703,11.2589999 10.9462499,11.2589999 Z M13.5524999,19.5989998 C15.5100731,19.5989998 17.0969998,18.0120731 17.0969998,16.0544998 C17.0969998,14.0969266 15.5100731,12.5099999 13.5524999,12.5099999 C11.5949266,12.5099999 10.0079999,14.0969266 10.0079999,16.0544998 C10.0079999,18.0120731 11.5949266,19.5989998 13.5524999,19.5989998 Z M13.5524999,18.8692498 C11.9979564,18.8692498 10.7377499,17.6090433 10.7377499,16.0544998 C10.7377499,14.4999564 11.9979564,13.2397499 13.5524999,13.2397499 C15.1070433,13.2397499 16.3672498,14.4999564 16.3672498,16.0544998 C16.3672498,17.6090433 15.1070433,18.8692498 13.5524999,18.8692498 Z M8.02724992,14.0737499 C8.37270402,14.0737499 8.65274991,13.793704 8.65274991,13.4482499 C8.65274991,13.1027958 8.37270402,12.8227499 8.02724992,12.8227499 C7.68179581,12.8227499 7.40174992,13.1027958 7.40174992,13.4482499 C7.40174992,13.793704 7.68179581,14.0737499 8.02724992,14.0737499 Z" id="Combined-Shape" fill="#212121"></path>
                                <path d="M6.87841508,5.92869743 L6.87841508,6.6792974 L7.16927257,6.6792974 C7.48827756,6.6792974 7.65716255,6.5385599 7.65716255,6.27584991 C7.65716255,6.01313992 7.48827756,5.92869743 7.16927257,5.92869743 L6.87841508,5.92869743 Z M8.61417752,8.33999991 L7.71345755,8.33999991 L7.18803757,7.31730742 L6.87841508,7.31730742 L6.87841508,8.33999991 L6.07152011,8.33999991 L6.07152011,5.29068745 L7.22556757,5.29068745 C7.88234255,5.29068745 8.44529253,5.51586744 8.44529253,6.27584994 C8.44529253,6.71213618 8.24826004,6.99830243 7.9527113,7.15780493 L8.61417752,8.33999991 Z M9.95532291,7.06867121 L10.5182729,7.06867121 L10.4666692,6.85756496 C10.3916092,6.56670746 10.3165492,6.19609871 10.2414892,5.89116746 L10.2227242,5.89116746 C10.1570467,6.20078996 10.0819867,6.56670746 10.0069267,6.85756496 L9.95532291,7.06867121 Z M10.8138218,8.33999991 L10.6637018,7.69260742 L9.80989426,7.69260742 L9.65977426,8.33999991 L8.83411426,8.33999991 L9.76298176,5.29068745 L10.7387618,5.29068745 L11.6676293,8.33999991 L10.8138218,8.33999991 Z M12.1971886,8.33999991 L12.1971886,5.29068745 L13.0979086,5.29068745 C14.0267761,5.29068745 14.6647861,5.72228244 14.6647861,6.80126993 C14.6647861,7.88025742 14.0267761,8.33999991 13.1448211,8.33999991 L12.1971886,8.33999991 Z M13.0040838,7.69260742 L13.0509963,7.69260742 C13.4919738,7.69260742 13.8391263,7.51433992 13.8391263,6.80126993 C13.8391263,6.08819994 13.4919738,5.93807994 13.0509963,5.93807994 L13.0040838,5.93807994 L13.0040838,7.69260742 Z M16.1372865,7.06867121 L16.7002365,7.06867121 L16.6486328,6.85756496 C16.5735728,6.56670746 16.4985128,6.19609871 16.4234528,5.89116746 L16.4046878,5.89116746 C16.3390103,6.20078996 16.2639503,6.56670746 16.1888903,6.85756496 L16.1372865,7.06867121 Z M16.9957856,8.33999991 L16.8456656,7.69260742 L15.9918581,7.69260742 L15.8417381,8.33999991 L15.0160781,8.33999991 L15.9449456,5.29068745 L16.9207256,5.29068745 L17.8495931,8.33999991 L16.9957856,8.33999991 Z M19.186047,5.92869743 L19.186047,6.6792974 L19.4769045,6.6792974 C19.7959095,6.6792974 19.9647945,6.5385599 19.9647945,6.27584991 C19.9647945,6.01313992 19.7959095,5.92869743 19.4769045,5.92869743 L19.186047,5.92869743 Z M20.9218097,8.33999991 L20.0210897,8.33999991 L19.4956697,7.31730742 L19.1860472,7.31730742 L19.1860472,8.33999991 L18.3791522,8.33999991 L18.3791522,5.29068745 L19.5331997,5.29068745 C20.1899747,5.29068745 20.7529247,5.51586744 20.7529247,6.27584994 C20.7529247,6.71213618 20.5558922,6.99830243 20.2603434,7.15780493 L20.9218097,8.33999991 Z" id="RADAR" fill="#212121" fill-rule="nonzero"></path>
                            </g>
                        </g>
                    </g>
                </g>
            </g>
        </g>
    </g>
</svg>