<?xml version="1.0" encoding="UTF-8"?>
<svg width="230px" height="230px" viewBox="0 0 230 230" version="1.1" xmlns="http://www.w3.org/2000/svg" xmlns:xlink="http://www.w3.org/1999/xlink">
    <!-- Generator: sketchtool 53.2 (72643) - https://sketchapp.com -->
    <title>AD479504-8112-4266-942E-A09D7B21B77E</title>
    <desc>Created with sketchtool.</desc>
    <g id="Landing" stroke="none" stroke-width="1" fill="none" fill-rule="evenodd">
        <g id="landing-page" transform="translate(-48.000000, -205.000000)">
            <g id="cell-1">
                <g id="bot_icon" transform="translate(48.000000, 205.000000)">
                    <rect id="Rectangle" fill="#FFC107" x="0" y="0" width="230" height="230"></rect>
                    <path d="M91.7903646,100.026042 L94.161887,96.468758 C96.4222512,93.0782118 100.22757,91.0416667 104.3025,91.0416667 L127.194896,91.0416667 C131.269825,91.0416667 135.075145,93.0782118 137.335509,96.468758 L139.707031,100.026042 L158.216146,100.026042 C164.947116,100.026042 170.403646,105.482571 170.403646,112.213542 L170.403646,159.713542 C170.403646,166.444512 164.947116,171.901042 158.216146,171.901042 L74.0299479,171.901042 C67.2989775,171.901042 61.8424479,166.444512 61.8424479,159.713542 L61.8424479,112.213542 C61.8424479,105.482571 67.2989775,100.026042 74.0299479,100.026042 L91.7903646,100.026042 Z M116.497396,159.921875 C130.556207,159.921875 141.953125,148.524957 141.953125,134.466146 C141.953125,120.407335 130.556207,109.010417 116.497396,109.010417 C102.438585,109.010417 91.0416667,120.407335 91.0416667,134.466146 C91.0416667,148.524957 102.438585,159.921875 116.497396,159.921875 Z M116.497396,154.68099 C105.333046,154.68099 96.2825521,145.630496 96.2825521,134.466146 C96.2825521,123.301796 105.333046,114.251302 116.497396,114.251302 C127.661746,114.251302 136.71224,123.301796 136.71224,134.466146 C136.71224,145.630496 127.661746,154.68099 116.497396,154.68099 Z M76.8164062,120.240885 C79.2973729,120.240885 81.3085937,118.229665 81.3085937,115.748698 C81.3085937,113.267731 79.2973729,111.25651 76.8164062,111.25651 C74.3354396,111.25651 72.3242187,113.267731 72.3242187,115.748698 C72.3242187,118.229665 74.3354396,120.240885 76.8164062,120.240885 Z" id="Combined-Shape" fill="#212121"></path>
                    <path d="M68.5657552,61.7451172 L68.5657552,67.1357422 L70.6546224,67.1357422 C72.945638,67.1357422 74.1585286,66.125 74.1585286,64.2382812 C74.1585286,62.3515625 72.945638,61.7451172 70.6546224,61.7451172 L68.5657552,61.7451172 Z M81.0315755,79.0625 L74.5628255,79.0625 L70.789388,71.7177734 L68.5657552,71.7177734 L68.5657552,79.0625 L62.7708333,79.0625 L62.7708333,57.1630859 L71.0589193,57.1630859 C75.7757161,57.1630859 79.8186849,58.7802734 79.8186849,64.2382812 C79.8186849,67.371582 78.4036458,69.4267578 76.2810872,70.5722656 L81.0315755,79.0625 Z M90.6633536,69.9321289 L94.7063223,69.9321289 L94.3357168,68.4160156 C93.7966543,66.3271484 93.2575918,63.6655273 92.7185293,61.4755859 L92.5837637,61.4755859 C92.112084,63.6992188 91.5730215,66.3271484 91.033959,68.4160156 L90.6633536,69.9321289 Z M96.8288809,79.0625 L95.7507559,74.4130859 L89.61892,74.4130859 L88.540795,79.0625 L82.6111075,79.0625 L89.2820059,57.1630859 L96.2898184,57.1630859 L102.960717,79.0625 L96.8288809,79.0625 Z M106.763882,79.0625 L106.763882,57.1630859 L113.232632,57.1630859 C119.90353,57.1630859 124.485561,60.2626953 124.485561,68.0117187 C124.485561,75.7607422 119.90353,79.0625 113.569546,79.0625 L106.763882,79.0625 Z M112.558803,74.4130859 L112.895718,74.4130859 C116.06271,74.4130859 118.555874,73.1328125 118.555874,68.0117187 C118.555874,62.890625 116.06271,61.8125 112.895718,61.8125 L112.558803,61.8125 L112.558803,74.4130859 Z M135.060699,69.9321289 L139.103667,69.9321289 L138.733062,68.4160156 C138.193999,66.3271484 137.654937,63.6655273 137.115874,61.4755859 L136.981109,61.4755859 C136.509429,63.6992188 135.970367,66.3271484 135.431304,68.4160156 L135.060699,69.9321289 Z M141.226226,79.0625 L140.148101,74.4130859 L134.016265,74.4130859 L132.93814,79.0625 L127.008453,79.0625 L133.679351,57.1630859 L140.687164,57.1630859 L147.358062,79.0625 L141.226226,79.0625 Z M156.956149,61.7451172 L156.956149,67.1357422 L159.045016,67.1357422 C161.336031,67.1357422 162.548922,66.125 162.548922,64.2382812 C162.548922,62.3515625 161.336031,61.7451172 159.045016,61.7451172 L156.956149,61.7451172 Z M169.421969,79.0625 L162.953219,79.0625 L159.179781,71.7177734 L156.956149,71.7177734 L156.956149,79.0625 L151.161227,79.0625 L151.161227,57.1630859 L159.449313,57.1630859 C164.16611,57.1630859 168.209078,58.7802734 168.209078,64.2382812 C168.209078,67.371582 166.794039,69.4267578 164.671481,70.5722656 L169.421969,79.0625 Z" id="RADAR" fill="#212121" fill-rule="nonzero"></path>
                </g>
            </g>
        </g>
    </g>
</svg>